<?xml version="1.0" encoding="iso-8859-1"?>
<!-- Generator: Adobe Illustrator 19.0.0, SVG Export Plug-In . SVG Version: 6.00 Build 0)  -->
<svg version="1.1" id="Capa_1" xmlns="http://www.w3.org/2000/svg" xmlns:xlink="http://www.w3.org/1999/xlink" x="0px" y="0px"
	 viewBox="0 0 448 448" style="enable-background:new 0 0 448 448;" xml:space="preserve">
<g>
	<g>
		<g>
			<rect x="352" y="234.667" width="32" height="64"/>
			<path d="M277.333,142.827h32.64c22.293,0,42.027,15.787,42.027,43.84v26.667h32v-33.92C384,140.907,349.867,112,309.973,112
				h-32.64c-21.76,0-39.467-20.907-39.467-42.667S255.573,32,277.333,32V0c-39.36,0-71.467,32-71.467,71.467
				C205.867,110.933,237.973,142.827,277.333,142.827z"/>
			<polygon points="330.667,297.067 330.667,234.667 268.267,234.667 			"/>
			<rect x="405.333" y="234.667" width="32" height="64"/>
			<path d="M370.133,61.44c13.12-12.907,21.333-30.933,21.333-50.773h-32c0,21.76-17.707,39.467-39.467,39.467v32
				c47.893,0,85.333,38.933,85.333,86.827v44.373h32v-44.48C437.333,121.387,410.027,80.427,370.133,61.44z"/>
			<polygon points="10.667,85.333 159.893,234.667 10.667,234.667 10.667,298.667 223.893,298.667 373.12,448 400,421.333 
				37.333,58.667 			"/>
		</g>
	</g>
</g>
<g>
</g>
<g>
</g>
<g>
</g>
<g>
</g>
<g>
</g>
<g>
</g>
<g>
</g>
<g>
</g>
<g>
</g>
<g>
</g>
<g>
</g>
<g>
</g>
<g>
</g>
<g>
</g>
<g>
</g>
</svg>
